<svg viewBox="0 0 12 15" fill="none" xmlns="http://www.w3.org/2000/svg">
<path fill-rule="evenodd" clip-rule="evenodd" d="M7.59957 4.59375C7.59957 5.6638 6.81159 6.53125 5.83957 6.53125C4.86755 6.53125 4.07957 5.6638 4.07957 4.59375C4.07957 3.5237 4.86755 2.65625 5.83957 2.65625C6.81159 2.65625 7.59957 3.5237 7.59957 4.59375ZM9.35957 4.59375C9.35957 6.73385 7.78361 8.46875 5.83957 8.46875C3.89553 8.46875 2.31957 6.73385 2.31957 4.59375C2.31957 2.45365 3.89553 0.71875 5.83957 0.71875C7.78361 0.71875 9.35957 2.45365 9.35957 4.59375ZM4.07957 9.4375C2.13553 9.4375 0.55957 11.1724 0.55957 13.3125V14.2812H2.31957V13.3125C2.31957 12.2424 3.10755 11.375 4.07957 11.375H7.59957C8.57159 11.375 9.35957 12.2424 9.35957 13.3125V14.2812H11.1196V13.3125C11.1196 11.1724 9.54361 9.4375 7.59957 9.4375H4.07957Z" fill="#FEAE62"/>
</svg>
