<svg width="100" height="97" viewBox="0 0 100 97" fill="none" xmlns="http://www.w3.org/2000/svg">
<path d="M42.3077 0.84613C33.8492 0.84613 26.9231 7.78724 26.9231 16.2307V20.0769H34.6154V16.2307C34.6154 11.9339 38.0108 8.53844 42.3077 8.53844H57.6923C61.9892 8.53844 65.3846 11.9339 65.3846 16.2307V20.0769H73.0769V16.2307C73.0769 7.78724 66.1508 0.84613 57.6923 0.84613H42.3077ZM18.75 23.9231C8.39844 23.9231 0 32.3215 0 42.6731V78.25C0 88.6015 8.39844 97 18.75 97H81.25C91.6016 97 100 88.6015 100 78.25V42.6731C100 32.3215 91.6016 23.9231 81.25 23.9231H18.75ZM50 50.4856C54.4621 50.4856 58.0529 54.0763 58.0529 58.5384C58.0529 63.0006 54.4621 66.5913 50 66.5913C45.5379 66.5913 41.9471 63.0006 41.9471 58.5384C41.9471 54.0763 45.5379 50.4856 50 50.4856Z" fill="white"/>
</svg>
