<svg width="71" height="99" viewBox="0 0 71 99" fill="none" xmlns="http://www.w3.org/2000/svg">
<path fill-rule="evenodd" clip-rule="evenodd" d="M14.0343 52.2978C14.3533 52.3322 14.8147 52.3592 15.4699 52.3592C17.6051 52.3592 19.6469 52.823 21.409 53.9421C22.9959 54.9582 24.2395 56.4293 24.9773 58.1632C25.77 59.9744 26.008 61.9573 26.0768 63.4961C28.0352 63.7906 30.9654 63.8078 35.1031 63.8078C39.2383 63.8078 42.171 63.793 44.1294 63.4961C44.1982 61.9549 44.4362 59.9744 45.2289 58.1608C45.9659 56.4271 47.2087 54.956 48.7948 53.9397C50.5618 52.823 52.5987 52.3592 54.7338 52.3592C55.3891 52.3592 55.8529 52.3346 56.1719 52.3003L56.2014 52.104C56.3192 51.272 56.3732 50.0768 56.3732 48.2755C56.3732 43.7574 58.1892 41.0431 59.3304 39.3301C59.5538 38.9988 59.7501 38.7019 59.9047 38.4393C60.7882 36.9275 62.0987 34.1642 62.0987 26.1931C62.0987 19.1718 58.977 14.0402 54.1424 10.5136C49.1678 6.88142 42.2643 4.90829 35.1031 4.90829C27.9419 4.90829 21.0409 6.88142 16.0614 10.5136C11.2292 14.0402 8.10751 19.1718 8.10751 26.1955C8.10751 34.1642 9.41802 36.9275 10.3015 38.4417C10.4561 38.7019 10.6525 38.9988 10.8758 39.3301C12.0194 41.0431 13.833 43.7574 13.833 48.273C13.833 50.0768 13.887 51.272 14.0048 52.1015L14.0343 52.2978ZM8.92474 48.273C8.92474 55.633 9.74442 57.2675 15.4699 57.2675C21.1955 57.2675 21.1955 62.1758 21.1955 65.4447C21.1955 68.7161 26.9234 68.7161 35.1031 68.7161C43.2828 68.7161 49.0107 68.7161 49.0107 65.4447C49.0107 62.1733 49.0107 57.2675 54.7363 57.2675C60.4618 57.2675 61.279 55.633 61.2815 48.273C61.2815 45.3624 62.1772 43.9856 63.2595 42.3242C64.9161 39.7817 67.007 36.5741 67.007 26.1955C67.007 -8.73185 3.19922 -8.73185 3.19922 26.1955C3.19922 36.5741 5.29015 39.7841 6.9467 42.3242C8.02898 43.9856 8.92474 45.3624 8.92474 48.273Z" fill="white"/>
<path d="M30.1975 36.8073C30.1975 38.7599 29.4218 40.6326 28.0411 42.0133C26.6604 43.394 24.7877 44.1697 22.8351 44.1697C20.8825 44.1697 19.0098 43.394 17.6291 42.0133C16.2483 40.6326 15.4727 38.7599 15.4727 36.8073C15.4727 34.8546 16.2483 32.982 17.6291 31.6012C19.0098 30.2205 20.8825 29.4448 22.8351 29.4448C24.7877 29.4448 26.6604 30.2205 28.0411 31.6012C29.4218 32.982 30.1975 34.8546 30.1975 36.8073Z" fill="white"/>
<path d="M54.7415 36.8002C54.7431 38.7528 53.969 40.6261 52.5894 42.008C51.2098 43.3898 49.3378 44.1671 47.3852 44.1687C45.4325 44.1703 43.5592 43.3962 42.1773 42.0167C40.7955 40.6371 40.0182 38.7651 40.0166 36.8124C40.0158 35.8456 40.2054 34.888 40.5747 33.9945C40.9439 33.1009 41.4856 32.2888 42.1687 31.6046C43.5482 30.2227 45.4203 29.4455 47.3729 29.4439C49.3255 29.4422 51.1989 30.2163 52.5807 31.5959C53.265 32.279 53.808 33.0902 54.1787 33.9831C54.5494 34.8761 54.7407 35.8333 54.7415 36.8002Z" fill="white"/>
<path fill-rule="evenodd" clip-rule="evenodd" d="M27.0668 84.675L0.012271 93.3749L1.51421 98.0476L35.1065 87.2444L68.7136 97.9936L70.2106 93.3185L43.1414 84.6602L70.1959 75.9603L68.6915 71.2876L35.1041 82.0907L1.49703 71.3416L0 76.0167L27.0692 84.675H27.0668Z" fill="white"/>
</svg>
