<svg width="126" height="125" viewBox="0 0 126 125" fill="none" xmlns="http://www.w3.org/2000/svg">
<g clip-path="url(#clip0_132_124)">
<path d="M28.3211 75.4314L23.9827 91.6271L8.12598 91.9626C3.38716 83.1731 0.699219 73.1168 0.699219 62.4303C0.699219 52.0965 3.21238 42.3516 7.66712 33.771H7.67053L21.7874 36.3591L27.9715 50.3913C26.6772 54.1647 25.9717 58.2154 25.9717 62.4303C25.9722 67.0048 26.8008 71.3878 28.3211 75.4314Z" fill="#FBBB00"/>
<path d="M124.248 50.7886C124.963 54.5583 125.336 58.4515 125.336 62.4303C125.336 66.8919 124.867 71.2439 123.974 75.4418C120.94 89.7269 113.013 102.201 102.032 111.028L102.029 111.024L84.2481 110.117L81.7315 94.4076C89.0178 90.1344 94.7121 83.4472 97.7116 75.4418H64.3887V50.7886H98.1977H124.248Z" fill="#518EF8"/>
<path d="M102.029 111.025L102.032 111.028C91.353 119.612 77.7867 124.748 63.0189 124.748C39.2868 124.748 18.6535 111.483 8.12793 91.9629L28.323 75.4316C33.5857 89.477 47.1347 99.4753 63.0189 99.4753C69.8463 99.4753 76.2426 97.6296 81.7312 94.4076L102.029 111.025Z" fill="#28B446"/>
<path d="M102.793 14.4595L82.6048 30.9873C76.9244 27.4367 70.2096 25.3855 63.0158 25.3855C46.7721 25.3855 32.9697 35.8425 27.9706 50.3915L7.66942 33.7712H7.66602C18.0375 13.7747 38.931 0.112793 63.0158 0.112793C78.1364 0.112793 92.0004 5.49889 102.793 14.4595Z" fill="#F14336"/>
</g>
<defs>
<clipPath id="clip0_132_124">
<rect width="124.635" height="124.635" fill="white" transform="translate(0.699219 0.112793)"/>
</clipPath>
</defs>
</svg>
