<svg width="76" height="82" viewBox="0 0 76 82" fill="none" xmlns="http://www.w3.org/2000/svg">
<path d="M70.4357 81.625H51.6857C48.8086 81.625 46.4774 79.2937 46.4774 76.4167V57.6667C46.4774 55.3646 44.6128 53.5 42.3107 53.5H33.9774C31.6753 53.5 29.8107 55.3646 29.8107 57.6667V76.4167C29.8107 79.2937 27.4795 81.625 24.6024 81.625H5.85238C2.97529 81.625 0.644043 79.2937 0.644043 76.4167V36.6521C0.644043 31.8625 2.83988 27.3375 6.60029 24.375L36.2086 1.04375C37.344 0.152083 38.944 0.152083 40.0774 1.04375L69.6899 24.375C73.4503 27.3375 75.644 31.8604 75.644 36.6479V76.4167C75.644 79.2937 73.3128 81.625 70.4357 81.625Z" fill="white"/>
</svg>
