<svg width="98" height="100" viewBox="0 0 98 100" fill="none" xmlns="http://www.w3.org/2000/svg">
<g clip-path="url(#clip0_122_119)">
<path d="M33.6875 75.0693H64.3125V81.2551H33.6875V75.0693Z" fill="white"/>
<path d="M40 96.8401H58.375V103.026H40V96.8401Z" fill="white"/>
<path d="M49.0001 7.02588C40.8779 7.02588 33.0883 10.2844 27.345 16.0847C21.6017 21.885 18.3751 29.7519 18.3751 37.9547C18.168 42.4497 19.0206 46.9302 20.8628 51.0274C22.705 55.1247 25.484 58.7217 28.9714 61.5225C32.0339 64.3989 33.6876 66.0381 33.6876 68.8836H39.8126C39.8126 63.1927 36.4133 60.007 33.1058 56.945C30.2434 54.7313 27.9622 51.8426 26.4619 48.5319C24.9616 45.2212 24.288 41.5894 24.5001 37.9547C24.5001 31.3924 27.0814 25.099 31.676 20.4587C36.2707 15.8185 42.5023 13.2116 49.0001 13.2116C55.498 13.2116 61.7296 15.8185 66.3243 20.4587C70.9189 25.099 73.5001 31.3924 73.5001 37.9547C73.7087 41.5921 73.0304 45.2256 71.5247 48.5365C70.019 51.8474 67.7318 54.7347 64.8639 56.945C61.587 60.0379 58.1876 63.1308 58.1876 68.8836H64.3126C64.3126 66.0381 65.9358 64.3989 69.0289 61.4916C72.5138 58.6955 75.2916 55.1038 77.1338 51.012C78.976 46.9201 79.8298 42.4449 79.6251 37.9547C79.6251 33.8931 78.833 29.8712 77.294 26.1188C75.7549 22.3663 73.4991 18.9567 70.6553 16.0847C67.8115 13.2127 64.4354 10.9345 60.7198 9.3802C57.0042 7.82588 53.0219 7.02588 49.0001 7.02588V7.02588Z" fill="white"/>
</g>
<defs>
<clipPath id="clip0_122_119">
<rect width="98" height="98.9723" fill="white" transform="translate(0 0.840088)"/>
</clipPath>
</defs>
</svg>
