<svg width="25" height="25" viewBox="0 0 25 25" fill="none" xmlns="http://www.w3.org/2000/svg">
<path fill-rule="evenodd" clip-rule="evenodd" d="M12.25 0.458984C8.99154 0.458984 8.58261 0.473131 7.30231 0.532544C6.02477 0.591958 5.15246 0.799435 4.38908 1.10216C3.58851 1.41022 2.86334 1.89298 2.26415 2.51678C1.65347 3.12922 1.18094 3.87043 0.879539 4.68868C0.583231 5.46767 0.381077 6.35887 0.322 7.66409C0.263846 8.97214 0.25 9.38992 0.25 12.719C0.25 16.048 0.263846 16.4658 0.322 17.7739C0.380154 19.0791 0.583231 19.9703 0.879539 20.7493C1.18692 21.5556 1.59677 22.2393 2.26415 22.9212C2.86334 23.545 3.58851 24.0278 4.38908 24.3358C5.15246 24.6376 6.02477 24.8451 7.30231 24.9054C8.58261 24.9648 8.99154 24.979 12.25 24.979C15.5085 24.979 15.9174 24.9648 17.1977 24.9054C18.4752 24.846 19.3475 24.6385 20.11 24.3358C20.9109 24.0279 21.6364 23.5451 22.2358 22.9212C22.8465 22.3087 23.3191 21.5675 23.6205 20.7493C23.9158 19.9703 24.1189 19.0791 24.178 17.7739C24.2362 16.4658 24.25 16.048 24.25 12.719C24.25 9.38992 24.2362 8.97214 24.178 7.66409C24.1198 6.35887 23.9168 5.46767 23.6195 4.68868C23.3184 3.87052 22.8462 3.12932 22.2358 2.51678C21.6364 1.89284 20.9109 1.41007 20.11 1.10216C19.3475 0.800378 18.4752 0.592901 17.1977 0.532544C15.9174 0.473131 15.5085 0.458984 12.25 0.458984ZM12.25 2.66767C15.454 2.66767 15.8334 2.68087 17.0989 2.73934C18.2685 2.79404 18.9045 2.99398 19.3272 3.16184C19.8875 3.38441 20.2872 3.64941 20.7072 4.07851C21.1272 4.50761 21.3866 4.91597 21.6045 5.48841C21.7688 5.92034 21.9645 6.56918 22.018 7.765C22.0752 9.05702 22.0882 9.44557 22.0882 12.719C22.0882 15.9924 22.0752 16.38 22.018 17.673C21.9645 18.8688 21.7688 19.5176 21.6045 19.9496C21.4122 20.4821 21.1056 20.9639 20.7072 21.3595C20.3201 21.7665 19.8485 22.0798 19.3272 22.2761C18.9045 22.444 18.2685 22.6439 17.0989 22.6986C15.8343 22.7571 15.454 22.7703 12.25 22.7703C9.046 22.7703 8.66569 22.7571 7.40108 22.6986C6.23062 22.6439 5.59554 22.444 5.17277 22.2761C4.6515 22.0798 4.17994 21.7665 3.79277 21.3595C3.3944 20.9638 3.08782 20.4821 2.89554 19.9496C2.73123 19.5176 2.53554 18.8688 2.482 17.673C2.42477 16.381 2.41185 15.9924 2.41185 12.719C2.41185 9.44557 2.42477 9.05796 2.482 7.765C2.53554 6.56918 2.73123 5.92034 2.89554 5.48841C3.11338 4.91597 3.37277 4.50761 3.79277 4.07851C4.17996 3.67146 4.65151 3.35823 5.17277 3.16184C5.59554 2.99398 6.23062 2.79404 7.40108 2.73934C8.66569 2.68087 9.046 2.66767 12.25 2.66767Z" fill="#101010" fill-opacity="0.73"/>
<path fill-rule="evenodd" clip-rule="evenodd" d="M12.2506 6.11725C10.5369 6.11725 8.89338 6.81277 7.6816 8.0508C6.46983 9.28883 5.78906 10.968 5.78906 12.7188C5.78906 14.4696 6.46983 16.1488 7.6816 17.3868C8.89338 18.6248 10.5369 19.3203 12.2506 19.3203C13.9643 19.3203 15.6078 18.6248 16.8196 17.3868C18.0314 16.1488 18.7121 14.4696 18.7121 12.7188C18.7121 10.968 18.0314 9.28883 16.8196 8.0508C15.6078 6.81277 13.9643 6.11725 12.2506 6.11725ZM12.2506 16.9626C11.1489 16.9626 10.0924 16.5155 9.31339 15.7196C8.53439 14.9238 8.09675 13.8443 8.09675 12.7188C8.09675 11.5933 8.53439 10.5138 9.31339 9.71794C10.0924 8.92206 11.1489 8.47494 12.2506 8.47494C13.3523 8.47494 14.4088 8.92206 15.1878 9.71794C15.9668 10.5138 16.4044 11.5933 16.4044 12.7188C16.4044 13.8443 15.9668 14.9238 15.1878 15.7196C14.4088 16.5155 13.3523 16.9626 12.2506 16.9626ZM20.2814 6.21156C20.2814 6.40971 20.2432 6.60593 20.1689 6.789C20.0947 6.97207 19.9859 7.13841 19.8488 7.27853C19.7116 7.41865 19.5488 7.52979 19.3696 7.60562C19.1905 7.68145 18.9984 7.72048 18.8044 7.72048C18.6105 7.72048 18.4184 7.68145 18.2393 7.60562C18.0601 7.52979 17.8973 7.41865 17.7601 7.27853C17.623 7.13841 17.5142 6.97207 17.4399 6.789C17.3657 6.60593 17.3275 6.40971 17.3275 6.21156C17.3275 5.81137 17.4831 5.42757 17.7601 5.14459C18.0371 4.86161 18.4127 4.70264 18.8044 4.70264C19.1961 4.70264 19.5718 4.86161 19.8488 5.14459C20.1258 5.42757 20.2814 5.81137 20.2814 6.21156Z" fill="#101010" fill-opacity="0.73"/>
</svg>
