<svg width="46" height="67" viewBox="0 0 46 67" fill="none" xmlns="http://www.w3.org/2000/svg">
<path d="M38.8595 37.545C36.8565 41.9161 34.1426 46.2708 31.3674 50.1809C28.7349 53.8672 25.92 57.3983 22.935 60.7589C19.9499 57.3984 17.1351 53.8673 14.5026 50.1809C11.7274 46.2708 9.01346 41.9161 7.01047 37.545C4.98454 33.1286 3.8225 28.9921 3.8225 25.4441C3.8225 19.9861 5.83613 14.7516 9.42042 10.8921C13.0047 7.03268 17.866 4.86447 22.935 4.86447C28.004 4.86447 32.8653 7.03268 36.4496 10.8921C40.0339 14.7516 42.0475 19.9861 42.0475 25.4441C42.0475 28.9921 40.8816 33.1286 38.8595 37.545ZM22.935 66.6035C22.935 66.6035 45.87 43.2003 45.87 25.4441C45.87 18.8945 43.4536 12.613 39.1525 7.98171C34.8513 3.35039 29.0177 0.748535 22.935 0.748535C16.8523 0.748535 11.0187 3.35039 6.71751 7.98171C2.41636 12.613 9.06399e-08 18.8945 0 25.4441C0 43.2003 22.935 66.6035 22.935 66.6035Z" fill="white" fill-opacity="0.85"/>
<path d="M22.9362 33.676C20.9087 33.676 18.9641 32.8087 17.5304 31.2649C16.0967 29.7212 15.2912 27.6273 15.2912 25.4441C15.2912 23.2609 16.0967 21.1671 17.5304 19.6233C18.9641 18.0795 20.9087 17.2122 22.9362 17.2122C24.9638 17.2122 26.9084 18.0795 28.3421 19.6233C29.7758 21.1671 30.5812 23.2609 30.5812 25.4441C30.5812 27.6273 29.7758 29.7212 28.3421 31.2649C26.9084 32.8087 24.9638 33.676 22.9362 33.676ZM22.9362 37.7919C25.9776 37.7919 28.8944 36.491 31.045 34.1753C33.1956 31.8597 34.4037 28.719 34.4037 25.4441C34.4037 22.1693 33.1956 19.0286 31.045 16.7129C28.8944 14.3972 25.9776 13.0963 22.9362 13.0963C19.8949 13.0963 16.9781 14.3972 14.8275 16.7129C12.6769 19.0286 11.4688 22.1693 11.4688 25.4441C11.4688 28.719 12.6769 31.8597 14.8275 34.1753C16.9781 36.491 19.8949 37.7919 22.9362 37.7919V37.7919Z" fill="white" fill-opacity="0.85"/>
</svg>
