<svg viewBox="0 0 821 157" fill="none" xmlns="http://www.w3.org/2000/svg">
<path d="M125.035 82.7843V134.01C118.195 138.853 110.88 142.485 103.09 144.907C95.3633 147.267 86.8767 148.446 77.63 148.446C66.6733 148.446 56.7933 146.801 47.99 143.51C39.1867 140.157 31.65 135.5 25.38 129.539C19.1733 123.517 14.3917 116.314 11.035 107.931C7.67833 99.549 6 90.3284 6 80.2696C6 70.0863 7.615 60.8039 10.845 52.4216C14.1383 44.0392 18.7933 36.8676 24.81 30.9069C30.8267 24.884 38.1417 20.2272 46.755 16.9363C55.3683 13.6454 64.995 12 75.635 12C81.0183 12 86.0217 12.4036 90.645 13.2108C95.2683 13.9559 99.5433 15.0735 103.47 16.5637C107.397 17.9919 111.038 19.7615 114.395 21.8725C117.752 23.9216 120.887 26.25 123.8 28.8578L118.575 37.0539C117.752 38.2958 116.675 39.1029 115.345 39.4755C114.078 39.786 112.653 39.4755 111.07 38.5441C109.55 37.6748 107.808 36.6193 105.845 35.3775C103.882 34.1356 101.475 32.9559 98.625 31.8382C95.8383 30.6585 92.5133 29.665 88.65 28.8578C84.85 28.0507 80.3217 27.6471 75.065 27.6471C67.4017 27.6471 60.4667 28.8889 54.26 31.3726C48.0533 33.7941 42.765 37.3023 38.395 41.8971C34.025 46.4297 30.6683 51.9559 28.325 58.4755C25.9817 64.9333 24.81 72.198 24.81 80.2696C24.81 88.652 26.0133 96.1647 28.42 102.809C30.89 109.39 34.3733 115.01 38.87 119.667C43.43 124.262 48.94 127.77 55.4 130.191C61.86 132.613 69.1117 133.824 77.155 133.824C83.4883 133.824 89.0933 133.14 93.97 131.775C98.91 130.346 103.723 128.39 108.41 125.907V96.5686H87.225C86.0217 96.5686 85.04 96.2275 84.28 95.5441C83.5833 94.8608 83.235 94.0225 83.235 93.0294V82.7843H125.035ZM222.879 34.3529C222.309 35.2843 221.676 35.9983 220.979 36.4951C220.346 36.9297 219.554 37.1471 218.604 37.1471C217.527 37.1471 216.261 36.6193 214.804 35.5637C213.347 34.5081 211.511 33.3595 209.294 32.1176C207.141 30.8137 204.512 29.634 201.409 28.5784C198.369 27.5228 194.664 26.9951 190.294 26.9951C186.177 26.9951 182.536 27.5539 179.369 28.6716C176.266 29.7272 173.637 31.1863 171.484 33.049C169.394 34.9118 167.811 37.116 166.734 39.6618C165.657 42.1454 165.119 44.8464 165.119 47.7647C165.119 51.4902 166.037 54.5948 167.874 57.0784C169.774 59.5 172.244 61.5804 175.284 63.3186C178.387 65.0569 181.871 66.5784 185.734 67.8824C189.661 69.1245 193.651 70.4284 197.704 71.7941C201.821 73.1598 205.811 74.7127 209.674 76.451C213.601 78.1275 217.084 80.2696 220.124 82.8775C223.227 85.4853 225.697 88.6833 227.534 92.4706C229.434 96.2579 230.384 100.915 230.384 106.441C230.384 112.277 229.371 117.773 227.344 122.926C225.317 128.018 222.341 132.458 218.414 136.245C214.551 140.032 209.769 143.013 204.069 145.186C198.432 147.36 192.004 148.446 184.784 148.446C175.917 148.446 167.874 146.894 160.654 143.789C153.434 140.623 147.259 136.37 142.129 131.029L147.449 122.461C147.956 121.777 148.557 121.219 149.254 120.784C150.014 120.287 150.837 120.039 151.724 120.039C152.547 120.039 153.466 120.38 154.479 121.064C155.556 121.684 156.759 122.492 158.089 123.485C159.419 124.478 160.939 125.566 162.649 126.745C164.359 127.925 166.291 129.012 168.444 130.005C170.661 130.998 173.162 131.836 175.949 132.52C178.736 133.14 181.871 133.451 185.354 133.451C189.724 133.451 193.619 132.861 197.039 131.681C200.459 130.502 203.341 128.856 205.684 126.745C208.091 124.572 209.927 121.995 211.194 119.015C212.461 116.034 213.094 112.713 213.094 109.049C213.094 105.013 212.144 101.723 210.244 99.1765C208.407 96.5686 205.969 94.3951 202.929 92.6569C199.889 90.9186 196.406 89.4588 192.479 88.2794C188.552 87.0373 184.562 85.7961 180.509 84.5539C176.456 83.25 172.466 81.7598 168.539 80.0833C164.612 78.4069 161.129 76.2333 158.089 73.5637C155.049 70.8941 152.579 67.5716 150.679 63.598C148.842 59.5621 147.924 54.5948 147.924 48.6961C147.924 43.9772 148.842 39.4134 150.679 35.0049C152.579 30.5964 155.302 26.6846 158.849 23.2696C162.459 19.8546 166.861 17.1225 172.054 15.0735C177.311 13.0245 183.327 12 190.104 12C197.704 12 204.607 13.1797 210.814 15.5392C217.084 17.8987 222.594 21.3137 227.344 25.7843L222.879 34.3529Z" fill="#FEAE62"/>
<path d="M340.929 30.9904V47.2414C338.778 48.7504 336.489 49.8822 334.062 50.6367C331.635 51.3719 328.991 51.7395 326.129 51.7395C322.696 51.7395 319.588 51.2171 316.805 50.1724C314.043 49.1277 311.685 47.667 309.731 45.7904C307.777 43.9139 306.268 41.6697 305.202 39.0579C304.156 36.4461 303.633 33.5732 303.633 30.4391C303.633 27.2856 304.137 24.403 305.143 21.7912C306.169 19.1601 307.629 16.9159 309.524 15.0587C311.418 13.1821 313.707 11.7311 316.391 10.7057C319.094 9.66102 322.124 9.13867 325.478 9.13867C327.175 9.13867 328.744 9.26446 330.185 9.51593C331.645 9.7674 332.997 10.1253 334.24 10.5897C335.483 11.054 336.628 11.615 337.673 12.2728C338.739 12.9112 339.726 13.6367 340.633 14.4493L338.828 17.2351C338.552 17.6801 338.186 17.9606 337.733 18.0767C337.279 18.1928 336.785 18.0864 336.253 17.7575C335.74 17.4673 335.167 17.1288 334.536 16.7418C333.924 16.3548 333.184 15.997 332.316 15.6681C331.467 15.3392 330.471 15.0587 329.326 14.8265C328.182 14.5944 326.83 14.4783 325.271 14.4783C322.942 14.4783 320.841 14.8555 318.966 15.61C317.092 16.3452 315.493 17.4093 314.171 18.8022C312.849 20.1951 311.833 21.8783 311.122 23.8516C310.412 25.8056 310.057 28.0014 310.057 30.4391C310.057 32.9928 310.432 35.2853 311.181 37.3167C311.931 39.3288 312.987 41.0409 314.349 42.4532C315.73 43.8461 317.397 44.9101 319.351 45.6453C321.324 46.3805 323.525 46.7481 325.952 46.7481C326.899 46.7481 327.777 46.6997 328.586 46.603C329.415 46.4869 330.204 46.3321 330.954 46.1387C331.704 45.9452 332.424 45.7034 333.115 45.4132C333.825 45.123 334.526 44.8038 335.217 44.4555V35.7206H328.941C328.547 35.7206 328.221 35.6046 327.965 35.3724C327.728 35.1402 327.609 34.85 327.609 34.5018V30.9904H340.929ZM429.755 46.0806V51.2751H405.424V9.60298H411.729V46.0806H429.755ZM529.646 30.4391C529.646 33.5539 529.133 36.4171 528.107 39.0289C527.101 41.6213 525.67 43.8654 523.815 45.7614C521.96 47.638 519.74 49.0987 517.155 50.1434C514.57 51.1881 511.699 51.7104 508.541 51.7104C505.404 51.7104 502.533 51.1881 499.928 50.1434C497.343 49.0987 495.123 47.638 493.268 45.7614C491.433 43.8654 490.002 41.6213 488.976 39.0289C487.95 36.4171 487.437 33.5539 487.437 30.4391C487.437 27.3437 487.95 24.49 488.976 21.8783C490.002 19.2665 491.433 17.0223 493.268 15.1457C495.123 13.2497 497.343 11.7795 499.928 10.7347C502.533 9.67073 505.404 9.13867 508.541 9.13867C511.699 9.13867 514.57 9.67073 517.155 10.7347C519.74 11.7795 521.96 13.2497 523.815 15.1457C525.67 17.0223 527.101 19.2665 528.107 21.8783C529.133 24.49 529.646 27.3437 529.646 30.4391ZM523.193 30.4391C523.193 27.9627 522.848 25.7379 522.157 23.7646C521.467 21.7912 520.48 20.1178 519.197 18.7442C517.934 17.3705 516.395 16.3162 514.58 15.581C512.784 14.8458 510.771 14.4783 508.541 14.4783C506.311 14.4783 504.289 14.8458 502.473 15.581C500.678 16.3162 499.138 17.3705 497.856 18.7442C496.573 20.1178 495.586 21.7912 494.896 23.7646C494.205 25.7379 493.86 27.9627 493.86 30.4391C493.86 32.9348 494.205 35.1693 494.896 37.1426C495.586 39.0966 496.573 40.7603 497.856 42.134C499.138 43.5076 500.678 44.5619 502.473 45.2971C504.289 46.0129 506.311 46.3708 508.541 46.3708C510.771 46.3708 512.784 46.0129 514.58 45.2971C516.395 44.5619 517.934 43.5076 519.197 42.134C520.48 40.7603 521.467 39.0966 522.157 37.1426C522.848 35.1693 523.193 32.9348 523.193 30.4391ZM608.748 46.3708C610.346 46.3708 611.708 46.187 612.833 45.8195C613.977 45.4519 614.905 44.9489 615.615 44.3104C616.345 43.672 616.878 42.9175 617.214 42.0469C617.549 41.157 617.717 40.1897 617.717 39.1449C617.717 37.0748 616.987 35.4498 615.526 34.2697C614.066 33.0701 611.807 32.4704 608.748 32.4704H599.868V46.3708H608.748ZM599.868 14.4493V28.0885H607.12C610.218 28.0885 612.517 27.4791 614.017 26.2602C615.536 25.0221 616.296 23.3583 616.296 21.2689C616.296 18.8893 615.576 17.1578 614.135 16.0744C612.695 14.9909 610.455 14.4493 607.416 14.4493H599.868ZM607.416 9.60298C610.08 9.60298 612.359 9.85445 614.254 10.3575C616.168 10.8605 617.737 11.586 618.96 12.534C620.183 13.4819 621.081 14.6331 621.654 15.9873C622.246 17.3222 622.542 18.8409 622.542 20.5434C622.542 21.5494 622.384 22.5167 622.068 23.4453C621.752 24.374 621.269 25.2446 620.618 26.0571C619.966 26.8503 619.147 27.5661 618.161 28.2046C617.174 28.843 616.01 29.375 614.668 29.8006C620.845 31.0001 623.933 34.1633 623.933 39.29C623.933 41.0699 623.597 42.695 622.926 44.1653C622.255 45.6163 621.279 46.8739 619.996 47.9379C618.713 49.0019 617.135 49.8242 615.26 50.4046C613.385 50.9849 611.254 51.2751 608.866 51.2751H593.563V9.60298H607.416ZM709.957 35.7497L703.653 19.5857C703.199 18.483 702.745 17.09 702.291 15.4069C702.074 16.2388 701.847 17.0127 701.61 17.7285C701.393 18.4443 701.176 19.0827 700.959 19.6438L694.684 35.7497H709.957ZM722.419 51.2751H717.565C717.012 51.2751 716.558 51.1398 716.203 50.8689C715.848 50.598 715.591 50.2497 715.433 49.8242L711.674 40.1606H692.937L689.178 49.8242C689.04 50.1917 688.784 50.5303 688.409 50.8398C688.034 51.13 687.58 51.2751 687.047 51.2751H682.193L699.124 9.60298H705.488L722.419 51.2751ZM808.057 46.0806V51.2751H783.726V9.60298H790.031V46.0806H808.057Z" fill="#FEAE62"/>
<path d="M332.231 102.628C332.034 102.957 331.826 103.199 331.609 103.354C331.392 103.509 331.116 103.586 330.781 103.586C330.425 103.586 330.021 103.431 329.567 103.122C329.113 102.793 328.541 102.434 327.85 102.048C327.179 101.641 326.37 101.283 325.423 100.975C324.476 100.645 323.341 100.48 322.019 100.48C320.776 100.48 319.681 100.645 318.733 100.975C317.806 101.283 317.026 101.719 316.395 102.28C315.764 102.822 315.28 103.47 314.945 104.225C314.629 104.96 314.471 105.763 314.471 106.633C314.471 107.755 314.757 108.683 315.329 109.419C315.921 110.154 316.691 110.782 317.638 111.305C318.585 111.827 319.661 112.282 320.865 112.669C322.068 113.056 323.302 113.462 324.565 113.888C325.828 114.294 327.061 114.768 328.265 115.31C329.468 115.852 330.544 116.538 331.491 117.371C332.438 118.182 333.198 119.189 333.77 120.388C334.362 121.569 334.658 123.02 334.658 124.741C334.658 126.579 334.333 128.301 333.681 129.907C333.05 131.513 332.122 132.915 330.899 134.115C329.676 135.314 328.166 136.262 326.37 136.959C324.594 137.635 322.572 137.975 320.302 137.975C318.941 137.975 317.618 137.838 316.336 137.568C315.053 137.317 313.84 136.959 312.695 136.494C311.55 136.011 310.475 135.44 309.469 134.782C308.482 134.105 307.594 133.35 306.805 132.519L308.61 129.559C308.788 129.326 308.995 129.132 309.232 128.978C309.488 128.824 309.774 128.746 310.09 128.746C310.505 128.746 310.978 128.959 311.511 129.384C312.064 129.81 312.734 130.284 313.524 130.806C314.333 131.309 315.29 131.774 316.395 132.199C317.52 132.625 318.881 132.837 320.48 132.837C321.782 132.837 322.946 132.674 323.973 132.344C324.999 131.996 325.857 131.513 326.548 130.893C327.258 130.255 327.801 129.491 328.176 128.601C328.551 127.711 328.738 126.725 328.738 125.641C328.738 124.422 328.452 123.426 327.88 122.652C327.308 121.877 326.548 121.229 325.601 120.708C324.653 120.185 323.578 119.74 322.374 119.373C321.17 119.005 319.937 118.627 318.674 118.241C317.411 117.834 316.178 117.371 314.974 116.848C313.77 116.326 312.695 115.648 311.748 114.817C310.801 113.966 310.041 112.911 309.469 111.653C308.896 110.376 308.61 108.81 308.61 106.952C308.61 105.463 308.906 104.022 309.498 102.628C310.09 101.235 310.949 100.007 312.073 98.9431C313.218 97.8598 314.619 96.998 316.277 96.3598C317.934 95.702 319.829 95.3735 321.96 95.3735C324.348 95.3735 326.538 95.751 328.531 96.5049C330.544 97.2402 332.29 98.3039 333.77 99.6971L332.231 102.628ZM424.813 132.489L424.784 137.51H398.44V95.8373H424.784V100.858H404.774V114.062H420.877V118.908H404.774V132.489H424.813ZM523.417 95.8373V137.51H520.22C519.726 137.51 519.312 137.423 518.977 137.249C518.661 137.075 518.335 136.794 518 136.407L493.994 105.966C494.034 106.488 494.063 107.001 494.083 107.504C494.122 108.007 494.142 108.48 494.142 108.925V137.51H488.607V95.8373H491.863C492.415 95.8373 492.83 95.9049 493.106 96.0412C493.382 96.1569 493.688 96.4373 494.024 96.8824L518.089 127.353C518.029 126.792 517.98 126.25 517.941 125.727C517.921 125.186 517.911 124.683 517.911 124.219V95.8373H523.417ZM611.925 102.628C611.727 102.957 611.52 103.199 611.303 103.354C611.086 103.509 610.81 103.586 610.474 103.586C610.119 103.586 609.715 103.431 609.261 103.122C608.807 102.793 608.235 102.434 607.544 102.048C606.873 101.641 606.064 101.283 605.117 100.975C604.17 100.645 603.035 100.48 601.713 100.48C600.47 100.48 599.374 100.645 598.427 100.975C597.5 101.283 596.72 101.719 596.089 102.28C595.457 102.822 594.974 103.47 594.638 104.225C594.323 104.96 594.165 105.763 594.165 106.633C594.165 107.755 594.451 108.683 595.023 109.419C595.615 110.154 596.385 110.782 597.332 111.305C598.279 111.827 599.355 112.282 600.558 112.669C601.762 113.056 602.995 113.462 604.258 113.888C605.521 114.294 606.755 114.768 607.958 115.31C609.162 115.852 610.238 116.538 611.185 117.371C612.132 118.182 612.892 119.189 613.464 120.388C614.056 121.569 614.352 123.02 614.352 124.741C614.352 126.579 614.026 128.301 613.375 129.907C612.744 131.513 611.816 132.915 610.593 134.115C609.369 135.314 607.86 136.262 606.064 136.959C604.288 137.635 602.265 137.975 599.996 137.975C598.634 137.975 597.312 137.838 596.03 137.568C594.747 137.317 593.533 136.959 592.389 136.494C591.244 136.011 590.169 135.44 589.162 134.782C588.176 134.105 587.288 133.35 586.498 132.519L588.304 129.559C588.482 129.326 588.689 129.132 588.926 128.978C589.182 128.824 589.468 128.746 589.784 128.746C590.198 128.746 590.672 128.959 591.205 129.384C591.757 129.81 592.428 130.284 593.218 130.806C594.027 131.309 594.984 131.774 596.089 132.199C597.214 132.625 598.575 132.837 600.174 132.837C601.476 132.837 602.64 132.674 603.666 132.344C604.692 131.996 605.551 131.513 606.242 130.893C606.952 130.255 607.495 129.491 607.87 128.601C608.244 127.711 608.432 126.725 608.432 125.641C608.432 124.422 608.146 123.426 607.574 122.652C607.001 121.877 606.242 121.229 605.294 120.708C604.347 120.185 603.272 119.74 602.068 119.373C600.864 119.005 599.631 118.627 598.368 118.241C597.105 117.834 595.872 117.371 594.668 116.848C593.464 116.326 592.389 115.648 591.442 114.817C590.494 113.966 589.735 112.911 589.162 111.653C588.59 110.376 588.304 108.81 588.304 106.952C588.304 105.463 588.6 104.022 589.192 102.628C589.784 101.235 590.642 100.007 591.767 98.9431C592.912 97.8598 594.313 96.998 595.97 96.3598C597.628 95.702 599.522 95.3735 601.654 95.3735C604.041 95.3735 606.232 95.751 608.225 96.5049C610.238 97.2402 611.984 98.3039 613.464 99.6971L611.925 102.628ZM717.738 116.674C717.738 119.788 717.225 122.652 716.199 125.264C715.193 127.856 713.762 130.1 711.907 131.996C710.052 133.873 707.832 135.333 705.247 136.378C702.662 137.423 699.791 137.945 696.634 137.945C693.496 137.945 690.625 137.423 688.02 136.378C685.435 135.333 683.215 133.873 681.36 131.996C679.525 130.1 678.094 127.856 677.068 125.264C676.042 122.652 675.529 119.788 675.529 116.674C675.529 113.578 676.042 110.725 677.068 108.113C678.094 105.501 679.525 103.257 681.36 101.38C683.215 99.4843 685.435 98.0137 688.02 96.9696C690.625 95.9049 693.496 95.3735 696.634 95.3735C699.791 95.3735 702.662 95.9049 705.247 96.9696C707.832 98.0137 710.052 99.4843 711.907 101.38C713.762 103.257 715.193 105.501 716.199 108.113C717.225 110.725 717.738 113.578 717.738 116.674ZM711.286 116.674C711.286 114.197 710.94 111.973 710.25 109.999C709.559 108.025 708.572 106.352 707.29 104.978C706.027 103.605 704.487 102.551 702.672 101.816C700.876 101.08 698.863 100.713 696.634 100.713C694.404 100.713 692.381 101.08 690.566 101.816C688.77 102.551 687.231 103.605 685.948 104.978C684.665 106.352 683.679 108.025 682.988 109.999C682.297 111.973 681.952 114.197 681.952 116.674C681.952 119.17 682.297 121.404 682.988 123.377C683.679 125.331 684.665 126.995 685.948 128.369C687.231 129.742 688.77 130.797 690.566 131.531C692.381 132.248 694.404 132.606 696.634 132.606C698.863 132.606 700.876 132.248 702.672 131.531C704.487 130.797 706.027 129.742 707.29 128.369C708.572 126.995 709.559 125.331 710.25 123.377C710.94 121.404 711.286 119.17 711.286 116.674ZM793.703 115.92C795.321 115.92 796.742 115.726 797.965 115.339C799.208 114.952 800.244 114.41 801.073 113.714C801.902 112.998 802.523 112.156 802.938 111.189C803.352 110.202 803.559 109.119 803.559 107.939C803.559 105.54 802.75 103.731 801.132 102.512C799.534 101.293 797.126 100.684 793.91 100.684H787.96V115.92H793.703ZM813.535 137.51H807.911C806.786 137.51 805.967 137.075 805.454 136.204L794.946 121.752C794.61 121.269 794.245 120.93 793.851 120.736C793.456 120.524 792.864 120.418 792.075 120.418H787.96V137.51H781.655V95.8373H793.91C796.653 95.8373 799.011 96.1186 800.984 96.6794C802.977 97.2206 804.615 98.0049 805.898 99.0294C807.2 100.036 808.157 101.255 808.769 102.686C809.4 104.118 809.716 105.724 809.716 107.504C809.716 108.955 809.489 110.319 809.035 111.595C808.582 112.873 807.911 114.024 807.023 115.049C806.154 116.055 805.089 116.925 803.826 117.661C802.563 118.395 801.132 118.957 799.534 119.343C800.323 119.808 801.004 120.456 801.576 121.288L813.535 137.51Z" fill="#FEAE62"/>
<path d="M262 11V149" stroke="#FEAE62"/>
</svg>
