<svg width="42" height="37" viewBox="0 0 42 37" fill="none" xmlns="http://www.w3.org/2000/svg">
<path d="M38.9996 0H2.99997C2.20433 0 1.44127 0.381923 0.87867 1.06175C0.316067 1.74158 0 2.66362 0 3.62504V32.6254C0 33.5868 0.316067 34.5089 0.87867 35.1887C1.44127 35.8685 2.20433 36.2504 2.99997 36.2504H38.9996C39.7952 36.2504 40.5583 35.8685 41.1209 35.1887C41.6835 34.5089 41.9995 33.5868 41.9995 32.6254V3.62504C41.9995 2.66362 41.6835 1.74158 41.1209 1.06175C40.5583 0.381923 39.7952 0 38.9996 0ZM35.6996 3.62504L20.9998 15.9139L6.29993 3.62504H35.6996ZM2.99997 32.6254V5.27444L20.1448 19.6115C20.3959 19.822 20.6942 19.9348 20.9998 19.9348C21.3054 19.9348 21.6037 19.822 21.8548 19.6115L38.9996 5.27444V32.6254H2.99997Z" fill="white" fill-opacity="0.85"/>
</svg>
