<svg width="114" height="116" viewBox="0 0 114 116" fill="none" xmlns="http://www.w3.org/2000/svg">
<path d="M57.0005 79.1292C45.6005 79.1292 36.4805 69.9187 36.4805 58.4056C36.4805 46.8925 45.6005 37.682 57.0005 37.682C68.4005 37.682 77.5205 46.8925 77.5205 58.4056C77.5205 69.9187 68.4005 79.1292 57.0005 79.1292ZM57.0005 42.2872C48.1085 42.2872 41.0405 49.4254 41.0405 58.4056C41.0405 67.3858 48.1085 74.5239 57.0005 74.5239C65.8925 74.5239 72.9605 67.3858 72.9605 58.4056C72.9605 49.4254 65.8925 42.2872 57.0005 42.2872Z" fill="white"/>
<path d="M63.1557 102.155H50.8437L47.4237 91.5633C45.1437 90.8725 42.8637 89.9515 40.8117 88.8001L30.7797 93.8659L22.1157 85.116L27.1317 74.9844C25.9917 72.9121 25.0797 70.6094 24.3957 68.3068L13.6797 64.6226V52.1885L24.1677 48.7345C24.8517 46.4319 25.7637 44.1293 26.9037 42.0569L21.8877 31.9254L30.5517 23.1755L40.5837 28.2412C42.6357 27.0899 44.9157 26.1689 47.1957 25.4781L50.8437 14.6558H63.1557L66.5757 25.2478C68.8557 25.9386 71.1357 26.8597 73.1877 28.011L83.2197 22.9452L91.8837 31.6952L86.8677 41.8267C88.0077 43.899 88.9197 46.2017 89.6037 48.5043L100.092 51.9582V64.3924L89.6037 67.8463C88.9197 70.1489 88.0077 72.4515 86.8677 74.5239L91.8837 84.6554L83.2197 93.4054L73.1877 88.3396C71.1357 89.4909 68.8557 90.412 66.5757 91.1028L63.1557 102.155ZM54.0357 97.5501H59.9637L63.1557 87.6488L64.2957 87.4186C67.0317 86.7278 69.5397 85.5765 72.0477 84.1949L73.1877 83.5041L82.3077 88.1094L86.4117 83.9646L81.8517 74.7542L82.5357 73.6029C83.9037 71.3002 85.0437 68.5371 85.7277 65.7739L85.9557 64.6226L95.7597 61.399V55.4121L85.9557 52.1885L85.7277 51.0372C85.0437 48.274 83.9037 45.7411 82.5357 43.2083L81.8517 42.0569L86.4117 32.8465L82.3077 28.7017L73.1877 33.307L72.0477 32.6162C69.5397 31.2346 67.0317 30.0833 64.2957 29.3925L63.1557 29.1623L59.9637 19.261H54.0357L50.8437 29.1623L49.7037 29.3925C46.9677 30.0833 44.4597 31.2346 41.9517 32.6162L40.8117 33.307L31.6917 28.7017L27.5877 32.8465L32.1477 42.0569L31.4637 43.2083C30.0957 45.5109 28.9557 48.274 28.2717 51.0372L28.0437 52.1885L18.2397 55.4121V61.399L28.0437 64.6226L28.2717 65.7739C28.9557 68.5371 30.0957 71.07 31.4637 73.6029L32.1477 74.7542L27.5877 83.9646L31.6917 88.1094L40.8117 83.5041L41.9517 84.1949C44.4597 85.5765 46.9677 86.7278 49.7037 87.4186L50.8437 87.6488L54.0357 97.5501V97.5501Z" fill="white"/>
</svg>
