<svg width="96" height="98" viewBox="0 0 96 98" fill="none" xmlns="http://www.w3.org/2000/svg">
<path d="M73.3346 33.0782C80.3302 33.0782 86.0013 27.6523 86.0013 20.9591C86.0013 14.266 80.3302 8.84009 73.3346 8.84009C66.339 8.84009 60.668 14.266 60.668 20.9591C60.668 27.6523 66.339 33.0782 73.3346 33.0782Z" stroke="white" stroke-width="2"/>
<path d="M73.3346 89.6337C80.3302 89.6337 86.0013 84.2078 86.0013 77.5147C86.0013 70.8215 80.3302 65.3956 73.3346 65.3956C66.339 65.3956 60.668 70.8215 60.668 77.5147C60.668 84.2078 66.339 89.6337 73.3346 89.6337Z" stroke="white" stroke-width="2"/>
<path d="M22.6667 61.356C29.6623 61.356 35.3333 55.9301 35.3333 49.237C35.3333 42.5438 29.6623 37.1179 22.6667 37.1179C15.6711 37.1179 10 42.5438 10 49.237C10 55.9301 15.6711 61.356 22.6667 61.356Z" stroke="white" stroke-width="2"/>
<path d="M62.3874 71.4066L33.6172 55.3489M62.3874 27.067L33.6172 43.1248L62.3874 27.067Z" stroke="white" stroke-width="2" stroke-linecap="round" stroke-linejoin="round"/>
</svg>
