<svg width="48" height="58" viewBox="0 0 48 58" fill="none" xmlns="http://www.w3.org/2000/svg">
<g clip-path="url(#clip0_199_220)">
<path d="M36.9732 57.0985C36.5248 57.097 36.0779 57.0376 35.6399 56.9213C27.3022 54.8372 19.6209 49.9506 13.4802 42.8239C7.47046 35.6816 3.3024 26.5879 1.4803 16.643C1.26545 15.4036 1.31818 14.1182 1.63342 12.9106C1.94866 11.7029 2.5158 10.6136 3.28028 9.74741L8.61355 3.54455C8.88596 3.23326 9.20963 2.99488 9.56343 2.84497C9.91724 2.69506 10.2932 2.63699 10.6669 2.67454C11.0543 2.72338 11.4281 2.87418 11.7621 3.11634C12.0962 3.35851 12.3822 3.68615 12.6002 4.07623L19.2668 15.9825C19.5168 16.4445 19.6375 16.9912 19.611 17.5423C19.5846 18.0933 19.4126 18.6196 19.1201 19.0436L15.7735 23.877C17.1063 27.4416 18.9939 30.6632 21.3334 33.3666C23.6578 36.168 26.4051 38.4049 29.4267 39.9561L33.5733 35.9766C33.9216 35.644 34.3453 35.4474 34.7883 35.4129C35.2313 35.3783 35.6725 35.5075 36.0533 35.7833L46.1198 43.6456C46.4653 43.8948 46.7596 44.2353 46.9807 44.6415C47.2018 45.0477 47.3439 45.5091 47.3965 45.9911C47.4491 46.4731 47.4107 46.9632 47.2843 47.4248C47.1579 47.8863 46.9467 48.3073 46.6665 48.6562L41.4665 54.8752C40.8759 55.5854 40.1748 56.1475 39.4036 56.5291C38.6325 56.9106 37.8065 57.1042 36.9732 57.0985V57.0985ZM10.4535 5.86458L5.12026 12.0674C4.6902 12.5517 4.37185 13.1628 4.19652 13.8408C4.02118 14.5187 3.99491 15.2402 4.12027 15.9341C5.81454 25.266 9.70917 33.8053 15.3335 40.52C21.1123 47.2248 28.3408 51.8211 36.1866 53.7796C36.7804 53.9296 37.3958 53.8992 37.9776 53.6912C38.5593 53.4831 39.0893 53.1038 39.5199 52.5874L44.7198 46.3684L34.9999 38.78L30.5466 43.0656C30.3762 43.2286 30.1753 43.3388 29.9615 43.3866C29.7477 43.4343 29.5274 43.4181 29.32 43.3395C25.6223 41.6932 22.2713 39.08 19.5068 35.6866C16.6473 32.4599 14.4277 28.4945 13.0135 24.0865C12.9537 23.8196 12.9517 23.5386 13.0077 23.2706C13.0638 23.0025 13.176 22.7564 13.3335 22.5559L16.9335 17.3519L10.4535 5.86458Z" fill="white" fill-opacity="0.85"/>
</g>
<defs>
<clipPath id="clip0_199_220">
<rect width="47.9995" height="58.0007" fill="white"/>
</clipPath>
</defs>
</svg>
