<svg width="130" height="131" viewBox="0 0 130 131" fill="none" xmlns="http://www.w3.org/2000/svg">
<path d="M52.9746 84.7738L39.2726 108.954C39.1346 109.195 39.0466 109.462 39.0136 109.739C38.9807 110.015 39.0036 110.295 39.0808 110.563C39.2405 111.107 39.6084 111.566 40.1046 111.84C55.2723 120.322 74.7301 120.322 89.8881 111.84C90.387 111.567 90.7575 111.108 90.9183 110.563C90.9955 110.295 91.018 110.015 90.9845 109.738C90.951 109.462 90.8622 109.195 90.7233 108.954L77.0278 84.7738C73.5793 87.4209 69.3502 88.8497 65.0028 88.8363C60.6544 88.8504 56.424 87.4216 52.9746 84.7738V84.7738Z" fill="white"/>
<path d="M54.7638 44.8771L40.6718 20.9213C40.532 20.6812 40.3455 20.4715 40.1234 20.3045C39.9012 20.1376 39.6478 20.0169 39.3783 19.9496C38.8258 19.8155 38.2428 19.9054 37.7565 20.1998C22.8293 29.0918 13.0988 45.9398 12.8648 63.3111C12.8525 63.88 13.0664 64.4305 13.4595 64.8418C13.8495 65.2481 14.3825 65.4756 14.948 65.4788L42.7355 65.7063C42.1693 61.396 43.0482 57.0196 45.2348 53.2621C47.396 49.4899 50.7473 46.541 54.7638 44.8771V44.8771Z" fill="white"/>
<path d="M87.2623 66.1675L115.053 65.9432C115.331 65.942 115.606 65.8849 115.862 65.7755C116.117 65.6661 116.349 65.5065 116.542 65.3062C116.934 64.8955 117.147 64.3464 117.136 63.7787C116.899 46.4042 107.172 29.5562 92.2446 20.6675C91.7596 20.3729 91.1779 20.2817 90.6261 20.414C90.3552 20.4802 90.1004 20.6004 89.877 20.7674C89.6537 20.9343 89.4663 21.1447 89.3261 21.3857L75.2373 45.3382C79.2536 47.0023 82.6048 49.9512 84.7663 53.7232C87.0413 57.659 87.8148 62.04 87.2623 66.1707V66.1675Z" fill="white"/>
<path d="M81.25 65.274C81.25 69.5838 79.538 73.717 76.4905 76.7645C73.443 79.8119 69.3098 81.524 65 81.524C60.6902 81.524 56.557 79.8119 53.5095 76.7645C50.462 73.717 48.75 69.5838 48.75 65.274C48.75 60.9642 50.462 56.831 53.5095 53.7835C56.557 50.736 60.6902 49.024 65 49.024C69.3098 49.024 73.443 50.736 76.4905 53.7835C79.538 56.831 81.25 60.9642 81.25 65.274Z" fill="white"/>
<path fill-rule="evenodd" clip-rule="evenodd" d="M65 123.774C97.3082 123.774 123.5 97.5822 123.5 65.2739C123.5 32.9657 97.3082 6.77393 65 6.77393C32.6918 6.77393 6.5 32.9657 6.5 65.2739C6.5 97.5822 32.6918 123.774 65 123.774ZM65 130.274C100.899 130.274 130 101.173 130 65.2739C130 29.3744 100.899 0.273926 65 0.273926C29.1005 0.273926 0 29.3744 0 65.2739C0 101.173 29.1005 130.274 65 130.274Z" fill="white"/>
</svg>
