<svg width="80" height="84" viewBox="0 0 80 84" fill="none" xmlns="http://www.w3.org/2000/svg">
<path d="M71.8616 47.0541C70.3761 45.9645 69.4886 44.2145 69.4886 42.3707C69.4886 40.527 70.3761 38.777 71.8595 37.6895L78.722 32.6582C79.8157 31.8541 80.2678 30.4395 79.8407 29.1499C78.0741 23.8416 75.2803 18.9999 71.5345 14.7561C70.6324 13.7395 69.1782 13.4186 67.9345 13.9645L60.2074 17.3624C58.5241 18.1041 56.5636 17.9978 54.9657 17.0749C53.3699 16.1541 52.2991 14.5124 52.097 12.6811L51.1678 4.1978C51.0199 2.8478 50.0157 1.7478 48.6866 1.47489C43.2761 0.368637 37.5907 0.349888 32.0845 1.45405C30.747 1.7228 29.7407 2.8228 29.5928 4.17905L28.672 12.6082C28.4699 14.4416 27.3991 16.0832 25.7991 17.0041C24.2032 17.9249 22.2491 18.0353 20.5595 17.2916L12.7907 13.8749C11.5574 13.3291 10.0991 13.6457 9.19698 14.6603C5.43865 18.8874 2.63239 23.7228 0.846978 29.027C0.413644 30.3145 0.863644 31.7374 1.96156 32.5436L8.78031 37.5436C10.2678 38.6353 11.1553 40.3853 11.1553 42.2291C11.1553 44.0728 10.2678 45.8228 8.78448 46.9103L1.92198 51.9416C0.828227 52.7457 0.376144 54.1603 0.803228 55.4499C2.56989 60.7582 5.36364 65.5999 9.10948 69.8436C10.0116 70.8624 11.4699 71.1853 12.7095 70.6353L20.4366 67.2374C22.1199 66.4957 24.0782 66.602 25.6782 67.5249C27.2741 68.4457 28.3449 70.0874 28.547 71.9186L29.4761 80.402C29.6241 81.752 30.6282 82.852 31.9574 83.1249C34.6949 83.6832 37.5074 83.9665 40.322 83.9665C43.0678 83.9665 45.8386 83.6895 48.5574 83.1436C49.8949 82.8749 50.9011 81.7749 51.0491 80.4186L51.972 71.9895C52.1741 70.1561 53.2449 68.5145 54.8449 67.5936C56.4407 66.6749 58.397 66.5665 60.0845 67.3061L67.8532 70.7228C69.0907 71.2707 70.5449 70.954 71.447 69.9374C75.2053 65.7103 78.0116 60.8749 79.797 55.5707C80.2303 54.2832 79.7803 52.8603 78.6824 52.0541L71.8616 47.0541ZM40.322 56.8832C32.2678 56.8832 25.7386 50.3541 25.7386 42.2999C25.7386 34.2457 32.2678 27.7166 40.322 27.7166C48.3761 27.7166 54.9053 34.2457 54.9053 42.2999C54.9053 50.3541 48.3761 56.8832 40.322 56.8832Z" fill="white"/>
</svg>
