<svg width="98" height="98" viewBox="0 0 98 98" fill="none" xmlns="http://www.w3.org/2000/svg">
<path d="M49 0C21.9559 0 0 21.9559 0 49C0 76.0441 21.9559 98 49 98C75.9951 98 97.9128 76.1225 97.9922 49.145C97.9972 49.0969 97.9998 49.0484 98 49C98 48.9565 97.998 48.913 97.9941 48.8697C97.9236 21.8854 76.001 0 49 0ZM50.372 2.9743C52.1319 3.02316 53.8877 3.17203 55.6307 3.4202C56.7479 3.87296 57.7769 4.41294 58.3884 4.93626C60.1583 6.36706 68.6686 10.6791 64.4742 5.90058C64.4115 5.77318 64.3762 5.67126 64.3331 5.56052C82.2387 11.8727 95.06 28.9237 95.06 49C95.06 70.8481 79.8759 89.1094 59.4791 93.8507C60.6953 93.197 62.0957 92.5159 62.9248 92.0436C67.1349 90.1326 71.0578 87.8452 74.5623 84.67C77.0064 80.5364 82.4219 79.4662 84.2839 74.8054C85.4511 70.6159 89.227 67.4348 89.3427 62.967C87.3366 60.0593 81.1499 62.6289 80.0209 58.455C79.6005 54.0695 74.92 55.9903 72.863 53.9274C69.7809 53.5707 71.6723 48.4767 69.1341 50.8277C66.0089 49.344 66.7821 51.3079 63.4432 51.3814C63.8578 49.8791 61.2284 48.4708 60.6777 49.8457C60.3523 49.9751 55.078 49.7752 54.5703 53.0944C52.5848 53.1875 49.6213 53.6031 47.6809 52.5104C45.9512 50.0721 49.5008 45.8366 44.4959 45.6278C40.9385 46.5059 42.7221 44.198 43.3444 41.7019C44.8938 37.7104 38.7874 40.4446 38.0612 42.5075C34.2334 44.6537 31.8314 38.5983 33.9501 35.7416C34.5009 29.8792 41.0336 33.4866 44.0157 31.3904C47.1429 31.3375 48.4982 35.0752 48.6923 37.1773C53.6393 36.3737 46.3883 29.7881 51.3383 28.3151C55.2828 27.3077 53.2032 23.6944 55.9933 21.5443C59.5487 21.7678 56.005 18.7601 58.9666 18.4867C60.123 19.3668 65.612 18.2956 63.2923 15.973C61.3656 17.7321 60.7718 14.6755 59.2822 14.3482C61.1902 14.3766 61.9135 15.238 63.3168 13.2966C62.8484 15.8525 65.9952 16.8952 68.1384 16.268C65.4483 12.7341 61.6097 10.586 57.7308 8.183C56.8939 4.6354 54.0166 3.86904 50.372 2.9743ZM49.932 4.63736C50.5788 4.60502 51.304 4.7432 51.6627 5.09502C48.6041 6.66302 50.0643 6.82178 50.5023 9.47072C51.889 8.7906 50.5219 11.3092 50.6905 10.3165C51.6274 8.91114 48.459 9.49522 49.6811 11.7355C48.2826 10.0626 44.6606 10.2341 42.9573 8.575C43.02 5.18126 48.5178 8.31432 49.4136 6.04464C47.9975 5.22536 48.855 4.69224 49.933 4.63736H49.932ZM25.3114 9.48836C24.4686 10.779 22.7164 12.6557 23.815 12.2598C23.9149 13.0173 22.3352 17.5175 20.3889 19.0375C18.6465 21.2121 17.8213 26.4296 19.6 27.6291C19.7411 30.2291 20.0871 33.2769 20.7731 35.6093C23.1594 40.7474 23.3857 34.5842 21.903 32.2969C23.5396 34.4911 25.5662 38.6992 25.7956 42.1057C28.1583 44.0628 31.116 46.4108 34.3559 46.2609C36.9538 47.4996 40.6798 49.4077 43.367 51.1766C44.2705 53.8324 47.3556 55.4758 49.8859 56.2559C51.1227 53.2189 53.3757 56.8782 53.0229 59.1675C51.8841 61.3098 48.3336 63.7088 49.4077 66.2843C47.136 68.9381 51.2295 71.0529 52.1615 73.8655C53.6383 75.9637 54.5742 78.791 57.6671 79.3339C61.8409 82.2916 57.0928 87.5689 55.5248 90.9793C55.1162 92.2376 52.9719 93.6909 52.5162 94.913C51.354 95.0002 50.1838 95.06 49 95.06C23.5445 95.06 2.94 74.4555 2.94 49C2.94 32.2106 11.906 17.5371 25.3114 9.48836ZM52.3673 34.3323C52.0047 34.3157 51.6333 34.4695 51.253 34.8723C53.7599 34.7204 50.1064 38.2112 53.0141 38.1377C54.1744 34.5656 53.7569 38.9677 55.9639 39.5028C57.3702 40.8944 56.3039 37.3988 56.2089 37.6996C55.2906 37.6643 53.9323 34.4039 52.3673 34.3323ZM48.7129 37.8182C47.9439 37.7925 47.186 38.0066 46.5441 38.4307C43.8256 39.984 46.2697 39.9115 47.2301 40.668C48.952 39.2108 50.3504 40.6357 52.4222 41.3727C52.4437 44.2548 57.0781 40.426 57.0693 42.6271C54.5233 43.5982 57.5789 44.4401 58.896 44.2891C59.4448 45.2446 59.7761 43.9167 60.3886 44.0079C62.4221 44.2372 64.2439 42.9034 60.9188 41.8225C58.21 42.2302 57.9827 40.5877 57.1066 39.9213C54.7742 41.5618 51.8185 37.9123 48.7129 37.8182ZM67.4377 42.9897C67.3544 43.022 67.3015 43.1631 67.2927 43.4777C68.403 45.1653 70.3052 47.3928 69.1449 49.8418C71.3793 49.5958 69.6878 45.0349 69.0557 43.3689C68.7274 44.7429 67.8003 42.8495 67.4387 42.9897H67.4377Z" fill="white"/>
</svg>
